<?xml version="1.0" encoding="UTF-8"?>
<!DOCTYPE svg PUBLIC "-//W3C//DTD SVG 1.1//EN" "http://www.w3.org/Graphics/SVG/1.1/DTD/svg11.dtd">
<svg xmlns="http://www.w3.org/2000/svg" version="1.1" width="1362px" height="2400px" style="shape-rendering:geometricPrecision; text-rendering:geometricPrecision; image-rendering:optimizeQuality; fill-rule:evenodd; clip-rule:evenodd" xmlns:xlink="http://www.w3.org/1999/xlink">
<g><path style="opacity:0.977" fill="white" d="M 338.5,-0.5 C 339.5,-0.5 340.5,-0.5 341.5,-0.5C 343.103,0.596413 344.603,1.92975 346,3.5C 346.152,9.83633 345.819,16.1697 345,22.5C 344.5,24.3333 343.333,25.5 341.5,26C 336.735,27.1994 332.069,28.6994 327.5,30.5C 327.167,32.5 326.833,34.5 326.5,36.5C 326.407,80.1682 326.407,123.835 326.5,167.5C 331.853,168.137 337.186,168.97 342.5,170C 344.286,170.785 345.786,171.951 347,173.5C 346.888,179.854 346.221,186.187 345,192.5C 344.5,194.333 343.333,195.5 341.5,196C 315.97,196.18 290.47,196.68 265,197.5C 262.684,197.066 260.684,196.066 259,194.5C 258.413,187.465 258.746,180.465 260,173.5C 265.321,170.391 270.988,168.058 277,166.5C 277.417,160.992 277.917,155.492 278.5,150C 277.273,128.84 277.273,107.673 278.5,86.5C 277.118,67.4886 276.784,48.4886 277.5,29.5C 272.474,28.8846 267.474,28.0513 262.5,27C 260.671,26.7265 259.171,25.8932 258,24.5C 257.459,17.4039 258.126,10.4039 260,3.5C 260.903,2.29857 262.069,1.46524 263.5,1C 282.74,0.174371 301.907,0.341037 321,1.5C 326.933,0.852418 332.766,0.185752 338.5,-0.5 Z"/></g>
<g><path style="opacity:0.981" fill="white" d="M 432.5,-0.5 C 433.833,-0.5 435.167,-0.5 436.5,-0.5C 447.5,2.16667 458.5,2.16667 469.5,-0.5C 473.5,-0.5 477.5,-0.5 481.5,-0.5C 503.167,0.833333 524.833,0.833333 546.5,-0.5C 559.5,-0.5 572.5,-0.5 585.5,-0.5C 588.453,0.00350268 591.286,1.0035 594,2.5C 595.652,8.74053 596.986,15.0739 598,21.5C 598.667,36.5 598.667,51.5 598,66.5C 597.167,67.3333 596.333,68.1667 595.5,69C 589.449,69.2082 583.449,69.7082 577.5,70.5C 573.565,69.7321 571.065,67.3988 570,63.5C 566.167,53.8333 562.333,44.1667 558.5,34.5C 551.142,33.1858 543.809,32.8525 536.5,33.5C 536.852,73.8703 536.352,114.204 535,154.5C 536.042,158.759 536.875,163.093 537.5,167.5C 543.415,169.312 549.415,170.812 555.5,172C 556.333,172.833 557.167,173.667 558,174.5C 558.667,181.167 558.667,187.833 558,194.5C 555.427,197.028 552.261,198.028 548.5,197.5C 521.848,197.397 495.182,197.23 468.5,197C 466.085,195.809 464.752,193.809 464.5,191C 465.14,185.098 466.14,179.265 467.5,173.5C 473.818,170.417 480.484,168.25 487.5,167C 488.738,164.382 488.738,161.715 487.5,159C 488.328,155.535 488.994,152.035 489.5,148.5C 488.382,140.372 487.716,132.205 487.5,124C 488.528,93.8798 488.528,63.7131 487.5,33.5C 480.492,33.3337 473.492,33.5004 466.5,34C 461.655,43.1918 457.488,52.6918 454,62.5C 453.117,65.1024 451.617,67.2691 449.5,69C 443.985,69.3473 438.485,69.8473 433,70.5C 430.186,70.5924 427.853,69.5924 426,67.5C 425.801,59.7845 425.301,52.1178 424.5,44.5C 426.414,30.5599 427.914,16.5599 429,2.5C 430.145,1.36362 431.312,0.363622 432.5,-0.5 Z"/></g>
<g><path style="opacity:0.977" fill="white" d="M 679.5,-0.5 C 681.167,-0.5 682.833,-0.5 684.5,-0.5C 685.261,0.390917 686.261,1.05758 687.5,1.5C 693.298,0.873687 698.964,0.20702 704.5,-0.5C 711.5,-0.5 718.5,-0.5 725.5,-0.5C 748.833,0.833333 772.167,0.833333 795.5,-0.5C 797.5,-0.5 799.5,-0.5 801.5,-0.5C 813.993,0.330891 826.66,0.830891 839.5,1C 840.333,1.83333 841.167,2.66667 842,3.5C 846.163,24.7537 847.163,46.0871 845,67.5C 842.072,69.0377 838.906,69.7044 835.5,69.5C 830.727,69.4819 826.06,68.8152 821.5,67.5C 816.646,55.7705 811.313,44.2705 805.5,33C 798.174,32.5003 790.841,32.3337 783.5,32.5C 784.141,75.5071 784.141,118.507 783.5,161.5C 783.833,163.5 784.167,165.5 784.5,167.5C 791.521,168.962 798.355,170.962 805,173.5C 806.708,180.104 806.708,186.771 805,193.5C 804.167,194.333 803.333,195.167 802.5,196C 774.167,196.667 745.833,196.667 717.5,196C 714.141,194.865 712.808,192.532 713.5,189C 713.955,184.1 714.789,179.267 716,174.5C 721.899,170.367 728.399,167.7 735.5,166.5C 736.332,122.325 736.332,77.9913 735.5,33.5C 728.137,33.1694 720.803,33.5027 713.5,34.5C 708.552,46.2261 703.219,57.7261 697.5,69C 690.452,69.7301 683.452,69.3968 676.5,68C 675.667,67.1667 674.833,66.3333 674,65.5C 673.931,49.9734 673.931,34.3067 674,18.5C 674.76,14.181 675.427,9.84771 676,5.5C 676.564,3.11327 677.73,1.11327 679.5,-0.5 Z"/></g>
<g><path style="opacity:0.979" fill="white" d="M 1006.5,-0.5 C 1010.17,-0.5 1013.83,-0.5 1017.5,-0.5C 1019.92,1.55179 1020.92,4.21846 1020.5,7.5C 1020,12.5 1019.5,17.5 1019,22.5C 1017.79,24.0488 1016.29,25.2155 1014.5,26C 1008.14,27.2056 1001.81,28.5389 995.5,30C 994.333,30.5 993.5,31.3333 993,32.5C 991.048,50.8475 991.215,69.1808 993.5,87.5C 992.715,94.9864 992.049,102.486 991.5,110C 992.488,128.488 993.155,146.988 993.5,165.5C 1004.43,165.582 1015.26,164.582 1026,162.5C 1030.49,163.333 1034.99,163.5 1039.5,163C 1043.43,155.877 1046.6,148.377 1049,140.5C 1052.64,134.697 1056.47,129.03 1060.5,123.5C 1067.12,122.372 1073.78,122.205 1080.5,123C 1081.33,123.833 1082.17,124.667 1083,125.5C 1085.36,148.948 1083.02,171.948 1076,194.5C 1075.17,195.333 1074.33,196.167 1073.5,197C 1040.65,197.324 1007.82,197.491 975,197.5C 966.984,197.032 958.984,196.365 951,195.5C 943.182,196.592 935.348,197.092 927.5,197C 925.081,195.314 924.081,192.981 924.5,190C 924.843,184.389 925.676,178.889 927,173.5C 932.064,170.365 937.564,168.198 943.5,167C 944.376,164.421 944.376,161.754 943.5,159C 945.182,149.955 946.182,140.788 946.5,131.5C 945.36,123.018 944.36,114.518 943.5,106C 945.677,80.5262 946.01,55.0262 944.5,29.5C 938.453,28.6573 932.453,27.4906 926.5,26C 926,25.5 925.5,25 925,24.5C 924.336,17.4586 924.669,10.4586 926,3.5C 926.833,2.66667 927.667,1.83333 928.5,1C 945.339,0.410011 962.172,0.576677 979,1.5C 988.365,1.46228 997.531,0.795617 1006.5,-0.5 Z"/></g>
<g><path style="opacity:0.976" fill="white" d="M 1179.5,-0.5 C 1189.5,-0.5 1199.5,-0.5 1209.5,-0.5C 1215.5,0.833333 1221.5,0.833333 1227.5,-0.5C 1232.83,-0.5 1238.17,-0.5 1243.5,-0.5C 1264.83,1.02137 1286.33,1.3547 1308,0.5C 1312.16,0.00653709 1315.83,1.00654 1319,3.5C 1322.13,22.0514 1323.13,40.7181 1322,59.5C 1321.5,61.3333 1320.33,62.5 1318.5,63C 1311.17,63.6667 1303.83,63.6667 1296.5,63C 1291.24,53.155 1286.24,43.155 1281.5,33C 1265.16,33.6877 1248.83,33.5211 1232.5,32.5C 1232.5,47.8333 1232.5,63.1667 1232.5,78.5C 1252.18,78.4575 1271.85,78.9575 1291.5,80C 1292.67,80.5 1293.5,81.3333 1294,82.5C 1294.48,91.5804 1293.81,100.58 1292,109.5C 1291.17,110.333 1290.33,111.167 1289.5,112C 1270.51,113.639 1251.51,113.806 1232.5,112.5C 1232.27,124.716 1232.94,136.882 1234.5,149C 1233.8,153.811 1233.47,158.644 1233.5,163.5C 1250.19,163.461 1266.86,163.628 1283.5,164C 1289.91,152.502 1296.58,141.169 1303.5,130C 1311.21,129.238 1318.88,129.571 1326.5,131C 1327.97,132.552 1328.97,134.386 1329.5,136.5C 1327.63,150.809 1325.8,165.142 1324,179.5C 1322.79,185.286 1320.95,190.786 1318.5,196C 1302.66,196.644 1286.83,196.477 1271,195.5C 1236.43,197.707 1201.93,197.54 1167.5,195C 1165.96,192.072 1165.3,188.906 1165.5,185.5C 1165.58,181.445 1166.08,177.445 1167,173.5C 1172.38,170.566 1178.05,168.233 1184,166.5C 1184.35,133.923 1185.18,101.423 1186.5,69C 1185.68,55.9085 1185.18,42.7418 1185,29.5C 1179.11,27.9022 1173.28,26.0688 1167.5,24C 1166.87,23.2496 1166.37,22.4162 1166,21.5C 1165.33,15.8333 1165.33,10.1667 1166,4.5C 1166.47,3.06919 1167.3,1.90252 1168.5,1C 1172.36,0.822695 1176.02,0.322695 1179.5,-0.5 Z"/></g>
<g><path style="opacity:0.978" fill="white" d="M 21.5,0.5 C 51.2299,0.0237462 80.8966,0.523746 110.5,2C 112.038,4.92756 112.704,8.09422 112.5,11.5C 112.425,15.5553 111.925,19.5553 111,23.5C 110.097,24.7014 108.931,25.5348 107.5,26C 100.215,27.8219 92.8819,29.3219 85.5,30.5C 85.3334,56.8354 85.5,83.1688 86,109.5C 86.3727,115.179 86.8727,120.845 87.5,126.5C 85.391,139.129 85.0577,151.796 86.5,164.5C 101.506,164.25 116.506,163.75 131.5,163C 138,150.5 144.5,138 151,125.5C 152.167,124.333 153.333,123.167 154.5,122C 160.833,121.333 167.167,121.333 173.5,122C 175.667,122.833 177.167,124.333 178,126.5C 176.729,141.425 175.729,156.425 175,171.5C 172.465,178.772 170.132,186.105 168,193.5C 167.167,194.333 166.333,195.167 165.5,196C 152.195,197.07 138.862,197.57 125.5,197.5C 90.4392,197.263 55.4392,196.429 20.5,195C 18.9733,192.243 18.3066,189.243 18.5,186C 18.6443,181.79 19.1443,177.624 20,173.5C 25.1627,170.497 30.6627,168.164 36.5,166.5C 37.8153,134.32 37.8153,102.153 36.5,70C 37.1279,62.987 37.7945,55.987 38.5,49C 37.5858,42.5311 36.9192,36.0311 36.5,29.5C 31.1107,28.6531 25.7773,27.4864 20.5,26C 19.6667,25.1667 18.8333,24.3333 18,23.5C 17.3619,16.7924 17.6953,10.1257 19,3.5C 19.6979,2.30943 20.5313,1.30943 21.5,0.5 Z"/></g>
<g><path style="opacity:0.98" fill="white" d="M 1361.5,521.5 C 1361.5,528.167 1361.5,534.833 1361.5,541.5C 1359.62,547.151 1357.96,552.984 1356.5,559C 1358.05,565.094 1359.22,571.26 1360,577.5C 1360.17,588.674 1360.67,599.674 1361.5,610.5C 1361.5,613.833 1361.5,617.167 1361.5,620.5C 1354.94,638.899 1353.94,657.732 1358.5,677C 1358.2,695.664 1357.86,714.331 1357.5,733C 1358.59,750.345 1359.92,767.511 1361.5,784.5C 1361.5,789.5 1361.5,794.5 1361.5,799.5C 1359.49,804.038 1358.15,808.871 1357.5,814C 1358.9,821.768 1359.56,829.601 1359.5,837.5C 1358.2,861.497 1357.37,885.497 1357,909.5C 1358.03,914.108 1359.53,918.441 1361.5,922.5C 1361.5,933.167 1361.5,943.833 1361.5,954.5C 1359.41,959.181 1358.08,964.181 1357.5,969.5C 1359.68,979.869 1361.01,990.202 1361.5,1000.5C 1361.5,1004.17 1361.5,1007.83 1361.5,1011.5C 1360.2,1022.82 1359.2,1034.32 1358.5,1046C 1362.11,1067.6 1361.11,1088.93 1355.5,1110C 1356.82,1119.83 1356.82,1129.66 1355.5,1139.5C 1357.06,1146.09 1359.06,1152.42 1361.5,1158.5C 1361.5,1168.17 1361.5,1177.83 1361.5,1187.5C 1360.17,1195.83 1360.17,1204.17 1361.5,1212.5C 1361.5,1218.83 1361.5,1225.17 1361.5,1231.5C 1356.39,1260.78 1355.72,1290.28 1359.5,1320C 1359.47,1327.5 1358.47,1334.84 1356.5,1342C 1358.13,1352.27 1359.8,1362.44 1361.5,1372.5C 1361.5,1377.5 1361.5,1382.5 1361.5,1387.5C 1360.2,1392.14 1359.2,1396.97 1358.5,1402C 1359.73,1412.63 1360.73,1423.13 1361.5,1433.5C 1361.5,1436.83 1361.5,1440.17 1361.5,1443.5C 1357.08,1475.76 1356.08,1508.26 1358.5,1541C 1358.24,1544.84 1357.91,1548.67 1357.5,1552.5C 1358.55,1561.33 1359.55,1570.16 1360.5,1579C 1359.34,1605.36 1358,1631.7 1356.5,1658C 1358.37,1677.68 1358.37,1697.35 1356.5,1717C 1357.55,1725.15 1357.72,1733.31 1357,1741.5C 1351.76,1753.87 1342.6,1758.37 1329.5,1755C 1318.86,1749.89 1314.36,1741.39 1316,1729.5C 1316.58,1706.5 1316.41,1683.5 1315.5,1660.5C 1316.12,1634.67 1317.12,1608.84 1318.5,1583C 1317.27,1561.33 1315.93,1539.66 1314.5,1518C 1315.82,1489.98 1317.49,1461.98 1319.5,1434C 1319.34,1422.76 1318.34,1411.59 1316.5,1400.5C 1317.62,1393.78 1318.95,1387.11 1320.5,1380.5C 1318.42,1367.74 1316.75,1354.91 1315.5,1342C 1316.07,1334.93 1317.07,1327.93 1318.5,1321C 1314.72,1288.11 1315.38,1255.28 1320.5,1222.5C 1318.73,1205.72 1318.73,1188.89 1320.5,1172C 1319.49,1164.97 1317.66,1158.14 1315,1151.5C 1314.83,1147.5 1314.67,1143.5 1314.5,1139.5C 1314.91,1126.53 1315.07,1113.53 1315,1100.5C 1317.06,1093.44 1318.56,1086.27 1319.5,1079C 1318.5,1067.85 1317.83,1056.69 1317.5,1045.5C 1319.05,1026.86 1319.55,1008.19 1319,989.5C 1317.42,982.684 1315.92,975.851 1314.5,969C 1317.3,959.145 1319.3,949.145 1320.5,939C 1318.71,928.628 1316.71,918.295 1314.5,908C 1315.77,884.329 1317.1,860.662 1318.5,837C 1317.55,828.601 1316.22,820.268 1314.5,812C 1315.9,804.802 1317.9,797.802 1320.5,791C 1319.31,785.265 1318.47,779.432 1318,773.5C 1316.77,753.993 1316.6,734.493 1317.5,715C 1316.87,692.979 1315.87,670.979 1314.5,649C 1314.05,638.227 1315.55,627.727 1319,617.5C 1320.13,597.454 1318.63,577.62 1314.5,558C 1315.44,551.389 1316.94,544.889 1319,538.5C 1320.09,518.8 1318.59,499.3 1314.5,480C 1316.56,468.051 1318.22,456.051 1319.5,444C 1319.41,442.893 1319.08,441.893 1318.5,441C 1311.85,441.257 1305.18,441.757 1298.5,442.5C 1288.7,440.925 1278.87,439.591 1269,438.5C 1258.97,439.573 1248.97,440.906 1239,442.5C 1232.89,442.145 1226.89,441.145 1221,439.5C 1214.04,442.1 1206.87,443.766 1199.5,444.5C 1192.77,443.934 1186.1,442.934 1179.5,441.5C 1173.15,442.407 1166.82,443.407 1160.5,444.5C 1147.71,440.65 1134.71,439.65 1121.5,441.5C 1114.61,440.826 1107.78,439.826 1101,438.5C 1088.01,441.166 1075.01,441.166 1062,438.5C 1043.2,440.698 1024.37,441.031 1005.5,439.5C 997.9,441.045 990.233,442.045 982.5,442.5C 971.156,441.632 959.822,440.632 948.5,439.5C 941.709,440.364 935.043,441.864 928.5,444C 913.722,445.076 899.055,444.243 884.5,441.5C 871.655,444.148 858.822,444.148 846,441.5C 832.465,444.696 819.132,444.029 806,439.5C 799.727,441.152 793.394,442.485 787,443.5C 774.51,442.057 762.01,440.723 749.5,439.5C 736.057,441.368 722.557,442.701 709,443.5C 698.016,442.354 687.016,441.354 676,440.5C 660.895,442.573 645.728,443.906 630.5,444.5C 611.334,442.305 592.167,440.638 573,439.5C 565.957,441.552 558.791,443.218 551.5,444.5C 545.132,443.158 538.798,441.658 532.5,440C 513.99,440.261 495.49,440.094 477,439.5C 469.358,440.687 461.691,441.687 454,442.5C 447.6,441.933 441.267,440.933 435,439.5C 428.42,441.312 421.753,442.646 415,443.5C 408.538,443.054 402.204,442.054 396,440.5C 389.469,442.339 382.803,443.673 376,444.5C 369.227,443.905 362.561,442.905 356,441.5C 349.608,442.914 343.108,443.914 336.5,444.5C 323.694,443.141 310.86,442.141 298,441.5C 265.005,441.499 232.005,442.166 199,443.5C 180.475,443.517 161.975,442.85 143.5,441.5C 129.276,444.803 115.276,444.137 101.5,439.5C 95.2827,441.344 88.9494,442.677 82.5,443.5C 75.1406,442.295 67.8073,440.961 60.5,439.5C 45.4441,441.694 30.4441,441.194 15.5,438C 4.68856,432.241 0.855223,423.408 4,411.5C 6.16667,405.333 10.3333,401.167 16.5,399C 25.1766,398.413 33.8433,398.579 42.5,399.5C 49.3563,399.064 56.1896,398.398 63,397.5C 69.5477,398.595 76.0477,399.929 82.5,401.5C 88.9863,400.103 95.4863,398.769 102,397.5C 109.251,399.313 116.585,400.646 124,401.5C 129.847,400.957 135.68,400.29 141.5,399.5C 180.156,403.215 218.823,403.215 257.5,399.5C 264.356,399.974 271.19,400.641 278,401.5C 284.475,400.623 290.975,399.957 297.5,399.5C 309.994,400.583 322.494,401.583 335,402.5C 348.171,399.961 361.338,399.961 374.5,402.5C 387.42,398.982 400.42,398.649 413.5,401.5C 420.467,400.008 427.467,398.675 434.5,397.5C 441.134,398.717 447.801,399.717 454.5,400.5C 467.627,398.404 480.793,398.071 494,399.5C 508.153,398.387 522.32,397.887 536.5,398C 541.808,399.118 546.975,400.618 552,402.5C 558.796,400.219 565.796,398.886 573,398.5C 594.503,399.846 616.003,401.179 637.5,402.5C 650.46,401.03 663.46,400.03 676.5,399.5C 687.6,399.429 698.6,400.429 709.5,402.5C 722.529,401.08 735.529,399.413 748.5,397.5C 760.345,398.724 772.178,400.057 784,401.5C 791.462,399.926 798.962,398.593 806.5,397.5C 813.898,398.245 821.064,399.912 828,402.5C 840.29,399.868 852.624,399.868 865,402.5C 871.434,401.285 877.934,400.618 884.5,400.5C 897.787,402.22 911.12,402.72 924.5,402C 931.197,399.784 938.03,398.284 945,397.5C 957.384,398.469 969.717,399.802 982,401.5C 998.032,398.208 1014.2,397.541 1030.5,399.5C 1041.04,399.37 1051.54,398.704 1062,397.5C 1068.55,397.691 1075.05,398.358 1081.5,399.5C 1095.65,397.019 1109.82,397.019 1124,399.5C 1136.73,397.569 1149.23,398.569 1161.5,402.5C 1167.63,401.268 1173.79,400.268 1180,399.5C 1186.02,400.392 1192.02,401.392 1198,402.5C 1205.08,400.438 1212.25,398.772 1219.5,397.5C 1226.01,398.435 1232.51,399.435 1239,400.5C 1254.04,397.649 1269.21,396.816 1284.5,398C 1289.42,398.94 1294.26,400.106 1299,401.5C 1314.82,397.713 1330.65,397.88 1346.5,402C 1351.33,404.167 1354.83,407.667 1357,412.5C 1361.65,435.008 1361.48,457.508 1356.5,480C 1358.81,493.904 1360.47,507.738 1361.5,521.5 Z"/></g>
<g><path style="opacity:0.98" fill="white" d="M -0.5,1442.5 C -0.5,1438.17 -0.5,1433.83 -0.5,1429.5C 0.833333,1420.17 0.833333,1410.83 -0.5,1401.5C -0.5,1399.83 -0.5,1398.17 -0.5,1396.5C 3.79397,1385.44 5.1273,1373.94 3.5,1362C 3.83755,1355.63 4.50422,1349.3 5.5,1343C 3.43416,1335.24 1.76749,1327.41 0.5,1319.5C 1.17595,1307.43 2.50928,1295.43 4.5,1283.5C 3.19781,1276.62 1.53114,1269.95 -0.5,1263.5C -0.5,1262.17 -0.5,1260.83 -0.5,1259.5C 0.940055,1253.65 2.27339,1247.65 3.5,1241.5C 2.17601,1235.07 1.17601,1228.57 0.5,1222C 2.57409,1209.21 2.90742,1196.37 1.5,1183.5C 2.55434,1176.67 3.55434,1169.84 4.5,1163C 2.834,1142.21 2.00067,1121.38 2,1100.5C 1.58122,1096.61 0.747883,1092.94 -0.5,1089.5C -0.5,1086.17 -0.5,1082.83 -0.5,1079.5C 1.54947,1068.06 2.88281,1056.39 3.5,1044.5C 2.4669,1031.67 1.4669,1018.84 0.5,1006C 1.69831,985.787 3.36498,965.62 5.5,945.5C 4.99381,923.612 3.66048,901.778 1.5,880C 1.66667,874.833 1.83333,869.667 2,864.5C 3.56698,858.401 4.73365,852.234 5.5,846C 4.33141,833.814 2.99808,821.647 1.5,809.5C 2.90969,783.01 4.24303,756.51 5.5,730C 4.02859,710.843 2.69526,691.676 1.5,672.5C 2.10427,663.478 2.9376,654.478 4,645.5C 10.7578,631.58 21.2578,627.746 35.5,634C 41.8839,638.935 44.8839,645.435 44.5,653.5C 43.1893,679.411 44.1893,705.245 47.5,731C 45.125,748.452 44.4583,765.952 45.5,783.5C 44.9236,792.007 44.257,800.507 43.5,809C 44.7966,822.17 46.1299,835.336 47.5,848.5C 45.3135,859.097 43.6468,869.763 42.5,880.5C 44.9458,900.245 46.2791,920.079 46.5,940C 45.4682,961.882 43.8015,983.715 41.5,1005.5C 43.0972,1018.81 44.4305,1032.14 45.5,1045.5C 44.2078,1058 42.8745,1070.5 41.5,1083C 42.8811,1091.12 43.8811,1099.29 44.5,1107.5C 42.756,1126.26 43.4227,1144.92 46.5,1163.5C 43.5902,1176.06 42.9235,1188.72 44.5,1201.5C 43.8333,1208.17 43.1667,1214.83 42.5,1221.5C 45.0351,1234.18 45.0351,1246.85 42.5,1259.5C 44.231,1266.93 45.5643,1274.43 46.5,1282C 45.0582,1292.65 43.7248,1303.32 42.5,1314C 44.0617,1322.85 45.7284,1331.69 47.5,1340.5C 45.9388,1355.45 45.1055,1370.45 45,1385.5C 42.0379,1396.79 40.8712,1408.29 41.5,1420C 42.2855,1439.06 43.9521,1458.06 46.5,1477C 45.4837,1483.4 44.1503,1489.73 42.5,1496C 47.3856,1508.93 47.7189,1521.93 43.5,1535C 45.4042,1541.69 46.7375,1548.52 47.5,1555.5C 46.0421,1563.21 44.3754,1570.88 42.5,1578.5C 45.2814,1590.09 44.9481,1601.59 41.5,1613C 44.0275,1622.16 45.3608,1631.5 45.5,1641C 45.3706,1653.69 45.2039,1666.53 45,1679.5C 43.8461,1684.11 43.0128,1688.78 42.5,1693.5C 44.4332,1708.26 45.4332,1723.1 45.5,1738C 44.2782,1756 42.9449,1774 41.5,1792C 42.4577,1817.53 43.7911,1843.03 45.5,1868.5C 44.0014,1883.32 42.6681,1898.15 41.5,1913C 42.2994,1923.82 42.6328,1934.65 42.5,1945.5C 55.0124,1945.36 67.5124,1945.7 80,1946.5C 94.0998,1943.63 108.1,1943.97 122,1947.5C 128.613,1945.91 135.28,1944.58 142,1943.5C 148.429,1944.18 154.763,1945.18 161,1946.5C 170.08,1943.62 179.413,1942.29 189,1942.5C 205.714,1943.23 222.381,1944.56 239,1946.5C 246.101,1945.01 253.268,1944.01 260.5,1943.5C 273.646,1945.55 286.813,1946.88 300,1947.5C 320.292,1946.86 340.625,1945.86 361,1944.5C 373.681,1945.43 386.347,1945.09 399,1943.5C 417.355,1944.75 435.688,1944.42 454,1942.5C 467.405,1945.06 480.905,1947.06 494.5,1948.5C 506.96,1946.45 519.46,1946.12 532,1947.5C 545.215,1944.49 558.548,1943.82 572,1945.5C 579.564,1944.99 587.064,1943.99 594.5,1942.5C 606.138,1944.03 617.805,1945.36 629.5,1946.5C 637.451,1944.85 645.451,1943.51 653.5,1942.5C 660.423,1942.9 667.256,1943.9 674,1945.5C 686.96,1942.51 699.793,1943.01 712.5,1947C 744.517,1948.21 776.517,1948.21 808.5,1947C 816.691,1944.7 825.024,1943.2 833.5,1942.5C 850.829,1943.74 868.162,1943.74 885.5,1942.5C 893.196,1942.84 900.863,1943.51 908.5,1944.5C 914.691,1944.07 920.858,1943.4 927,1942.5C 933.695,1943.67 940.362,1945.01 947,1946.5C 953.481,1945.09 959.981,1943.75 966.5,1942.5C 973.129,1943.78 979.629,1945.45 986,1947.5C 992.224,1945.53 998.557,1943.86 1005,1942.5C 1018.09,1945.97 1031.26,1946.31 1044.5,1943.5C 1054.19,1945.94 1064.03,1947.27 1074,1947.5C 1084.06,1947.05 1094.06,1946.05 1104,1944.5C 1110.05,1944.76 1116.05,1945.42 1122,1946.5C 1128.69,1945.58 1135.35,1944.58 1142,1943.5C 1148.21,1944.64 1154.38,1945.98 1160.5,1947.5C 1181.2,1941.18 1202.04,1940.85 1223,1946.5C 1234.71,1945.18 1246.38,1945.18 1258,1946.5C 1265.04,1944.69 1272.2,1943.35 1279.5,1942.5C 1285.87,1943.47 1292.2,1944.64 1298.5,1946C 1313.95,1944.9 1329.28,1945.9 1344.5,1949C 1359.42,1956.71 1362.59,1967.88 1354,1982.5C 1349.49,1987.06 1343.99,1989.39 1337.5,1989.5C 1322.21,1987.93 1306.88,1987.1 1291.5,1987C 1287.33,1986.17 1283.17,1985.33 1279,1984.5C 1271.58,1986.1 1264.08,1987.1 1256.5,1987.5C 1245.5,1986.21 1234.5,1986.21 1223.5,1987.5C 1213.17,1986.17 1202.84,1984.84 1192.5,1983.5C 1189.83,1983.67 1187.17,1983.83 1184.5,1984C 1177.09,1986.23 1169.59,1988.06 1162,1989.5C 1154.98,1988.3 1147.98,1986.96 1141,1985.5C 1128.62,1988.13 1116.28,1988.13 1104,1985.5C 1083.22,1990.77 1062.39,1990.77 1041.5,1985.5C 1035.99,1986.07 1030.49,1986.73 1025,1987.5C 1018.98,1986.59 1012.98,1985.59 1007,1984.5C 999.947,1986.68 992.781,1988.35 985.5,1989.5C 978.985,1988.25 972.485,1986.91 966,1985.5C 959.554,1986.9 953.054,1987.9 946.5,1988.5C 939.278,1987.57 932.111,1986.24 925,1984.5C 911.771,1987.21 898.604,1986.88 885.5,1983.5C 866.518,1984.3 847.518,1984.8 828.5,1985C 824.167,1986 819.833,1987 815.5,1988C 779.172,1989.65 742.839,1989.65 706.5,1988C 701.24,1987.08 696.073,1985.92 691,1984.5C 679.052,1987.13 667.052,1987.13 655,1984.5C 647.634,1985.67 640.301,1987.01 633,1988.5C 620.249,1987.95 607.582,1986.62 595,1984.5C 582.237,1987.98 569.403,1988.32 556.5,1985.5C 543.412,1989.45 530.245,1990.12 517,1987.5C 495.819,1991.02 474.986,1989.68 454.5,1983.5C 435.866,1986.17 417.199,1986.5 398.5,1984.5C 385.511,1986.55 372.511,1986.88 359.5,1985.5C 339.067,1987.16 318.567,1988.16 298,1988.5C 285.444,1988.14 272.944,1987.14 260.5,1985.5C 252.883,1986.71 245.216,1987.38 237.5,1987.5C 219.769,1986.67 202.102,1985.34 184.5,1983.5C 171.024,1987.91 157.358,1988.58 143.5,1985.5C 136.499,1986.83 129.499,1988.17 122.5,1989.5C 115.779,1988.38 109.112,1987.05 102.5,1985.5C 95.9055,1986.87 89.2388,1987.87 82.5,1988.5C 59.8039,1987.19 37.1373,1986.03 14.5,1985C 9.74531,1982.33 6.24531,1978.5 4,1973.5C -0.304843,1939.02 -0.47151,1904.52 3.5,1870C 1.08706,1837.21 0.253723,1804.38 1,1771.5C 5.27802,1745.16 5.11135,1718.82 0.5,1692.5C 1.7529,1683.99 3.08624,1675.49 4.5,1667C 4.21977,1649.07 2.88644,1631.23 0.5,1613.5C 0.884799,1606.81 1.55147,1600.14 2.5,1593.5C 1.83333,1587.5 1.16667,1581.5 0.5,1575.5C 1.54451,1568.36 3.21118,1561.36 5.5,1554.5C 1.9352,1542.59 1.60187,1530.59 4.5,1518.5C 2.92636,1511.37 1.59302,1504.21 0.5,1497C 1.59453,1489.12 2.92787,1481.29 4.5,1473.5C 3.96478,1462.85 2.29812,1452.52 -0.5,1442.5 Z"/></g>
<g><path style="opacity:0.99" fill="white" d="M 718.5,814.5 C 700.12,809.808 682.786,802.641 666.5,793C 655.237,791.518 644.57,788.185 634.5,783C 619.942,768.442 605.275,753.775 590.5,739C 614.139,737.239 637.806,735.739 661.5,734.5C 689.027,735.404 716.527,734.737 744,732.5C 764.168,733.756 784.334,733.756 804.5,732.5C 804.5,731.5 804.5,730.5 804.5,729.5C 792.638,729.407 780.971,727.907 769.5,725C 761.5,724.667 753.5,724.333 745.5,724C 735.016,719.592 724.183,718.426 713,720.5C 702.527,719.403 692.027,718.736 681.5,718.5C 669.612,719.01 657.778,720.01 646,721.5C 641.629,721.455 637.296,721.122 633,720.5C 620.59,723.394 608.09,725.894 595.5,728C 591.167,730.5 586.833,733 582.5,735.5C 579.941,734.392 577.608,733.059 575.5,731.5C 585.098,726.75 593.765,720.583 601.5,713C 618.99,706.587 635.657,698.587 651.5,689C 664.72,687.196 677.386,683.529 689.5,678C 706.5,677.333 723.5,677.333 740.5,678C 754.589,680.151 768.589,682.818 782.5,686C 792.718,690.609 803.052,694.943 813.5,699C 827.167,702.667 840.833,706.333 854.5,710C 861.833,713 869.167,716 876.5,719C 879.667,722.833 882.833,726.667 886,730.5C 887.799,735.399 889.299,740.399 890.5,745.5C 887.422,750.084 883.756,754.251 879.5,758C 863.638,769.438 846.638,779.104 828.5,787C 803.165,796.889 777.165,804.556 750.5,810C 739.893,812.111 729.227,813.611 718.5,814.5 Z"/></g>
<g><path style="opacity:0.997" fill="white" d="M 718.5,814.5 C 728.267,821.754 737.933,829.254 747.5,837C 753.974,840.049 760.64,842.716 767.5,845C 771.535,848.7 775.202,852.7 778.5,857C 783.833,859.667 789.167,862.333 794.5,865C 801.833,870.333 809.167,875.667 816.5,881C 827.833,891.667 839.167,902.333 850.5,913C 853.833,915.333 857.167,917.667 860.5,920C 866.957,929.08 873.29,938.246 879.5,947.5C 884.813,951.645 889.98,955.979 895,960.5C 900.667,970.5 906.333,980.5 912,990.5C 915.1,994.356 918.433,998.023 922,1001.5C 923.511,1007.21 925.178,1012.88 927,1018.5C 933.251,1028 939.251,1037.67 945,1047.5C 946.333,1054.17 947.667,1060.83 949,1067.5C 958.331,1088.16 965.665,1109.49 971,1131.5C 972.932,1136.46 974.765,1141.46 976.5,1146.5C 975.582,1152.18 974.582,1157.85 973.5,1163.5C 978.559,1174.84 981.892,1186.68 983.5,1199C 981.871,1207.54 981.704,1216.04 983,1224.5C 983.72,1239.19 983.386,1253.86 982,1268.5C 980.194,1273.42 978.694,1278.42 977.5,1283.5C 978.675,1289.2 980.009,1294.87 981.5,1300.5C 979.433,1306.53 977.267,1312.53 975,1318.5C 971.918,1336.07 969.585,1353.74 968,1371.5C 964.537,1381.2 962.537,1391.2 962,1401.5C 952.003,1421.83 945.003,1443.16 941,1465.5C 936.333,1477.5 931.667,1489.5 927,1501.5C 926,1506.83 925,1512.17 924,1517.5C 916.659,1527.51 910.326,1538.17 905,1549.5C 902.444,1561.39 899.111,1573.06 895,1584.5C 891.368,1587.13 888.035,1590.13 885,1593.5C 874.46,1614.66 868.794,1636.99 868,1660.5C 868.912,1663.98 869.745,1667.48 870.5,1671C 866.874,1679.38 863.54,1687.88 860.5,1696.5C 857.204,1697.77 853.871,1698.93 850.5,1700C 840.773,1700.63 831.106,1701.29 821.5,1702C 809.566,1690.7 796.233,1681.36 781.5,1674C 778.167,1669.67 774.833,1665.33 771.5,1661C 766.167,1657.67 760.833,1654.33 755.5,1651C 748.545,1648.84 741.545,1646.84 734.5,1645C 729.833,1641.67 725.167,1638.33 720.5,1635C 707.617,1632.89 694.951,1629.89 682.5,1626C 660.347,1618.17 638.681,1609.17 617.5,1599C 613.302,1595.97 608.968,1593.14 604.5,1590.5C 597.717,1582.21 590.383,1574.38 582.5,1567C 571.653,1559.08 560.987,1550.91 550.5,1542.5C 543.095,1534.02 535.928,1525.35 529,1516.5C 523.968,1511.13 518.635,1506.13 513,1501.5C 510.584,1497 507.917,1492.67 505,1488.5C 499.85,1483.93 494.517,1479.59 489,1475.5C 483.333,1467.83 477.667,1460.17 472,1452.5C 469.532,1445.57 466.532,1438.9 463,1432.5C 454.057,1419.62 444.391,1407.29 434,1395.5C 430.282,1385.73 425.282,1376.73 419,1368.5C 416.605,1362.65 414.605,1356.65 413,1350.5C 410.684,1334.25 406.351,1318.58 400,1303.5C 397.667,1291.84 395.334,1280.17 393,1268.5C 391.196,1263.42 389.196,1258.42 387,1253.5C 387.038,1236.04 384.871,1218.87 380.5,1202C 381.991,1196.03 383.325,1190.03 384.5,1184C 383.011,1172.54 380.345,1161.38 376.5,1150.5C 378.873,1133.68 381.206,1116.85 383.5,1100C 382.006,1093.88 381.173,1087.71 381,1081.5C 386.732,1072.31 390.065,1062.31 391,1051.5C 394.333,1046.17 397.667,1040.83 401,1035.5C 404.468,1024.63 407.468,1013.63 410,1002.5C 412.667,997.167 415.333,991.833 418,986.5C 426.807,978.898 433.141,969.565 437,958.5C 441.07,946.956 444.737,935.289 448,923.5C 452.139,913.888 456.806,904.554 462,895.5C 463.491,889.87 464.824,884.203 466,878.5C 469.333,873.167 472.667,867.833 476,862.5C 480.452,839.717 482.786,816.717 483,793.5C 489.67,785.48 494.67,776.48 498,766.5C 506.969,759.588 515.469,752.088 523.5,744C 527.327,742.254 530.993,740.254 534.5,738C 544.769,736.023 554.769,733.023 564.5,729C 566.167,728.333 567.833,728.333 569.5,729C 571.407,730.122 573.407,730.955 575.5,731.5C 577.608,733.059 579.941,734.392 582.5,735.5C 586.833,733 591.167,730.5 595.5,728C 608.09,725.894 620.59,723.394 633,720.5C 637.296,721.122 641.629,721.455 646,721.5C 657.778,720.01 669.612,719.01 681.5,718.5C 692.027,718.736 702.527,719.403 713,720.5C 724.183,718.426 735.016,719.592 745.5,724C 753.5,724.333 761.5,724.667 769.5,725C 780.971,727.907 792.638,729.407 804.5,729.5C 804.5,730.5 804.5,731.5 804.5,732.5C 784.334,733.756 764.168,733.756 744,732.5C 716.527,734.737 689.027,735.404 661.5,734.5C 637.806,735.739 614.139,737.239 590.5,739C 605.275,753.775 619.942,768.442 634.5,783C 644.57,788.185 655.237,791.518 666.5,793C 682.786,802.641 700.12,809.808 718.5,814.5 Z"/></g>
<g><path style="opacity:1" fill="white" d="M 565.5,744.5 C 571.35,746.509 577.017,749.009 582.5,752C 592.363,762.197 602.529,772.03 613,781.5C 616.807,786.941 620.973,792.108 625.5,797C 637.847,802.686 647.68,811.186 655,822.5C 664.398,832.567 674.398,841.9 685,850.5C 688.091,855.014 691.425,859.347 695,863.5C 699.532,874.898 704.866,885.898 711,896.5C 711.659,909.462 713.992,922.129 718,934.5C 718.595,947.527 720.428,960.36 723.5,973C 723.106,979.082 722.439,985.082 721.5,991C 722.966,1003.75 724.132,1016.58 725,1029.5C 726.196,1034.92 727.696,1040.25 729.5,1045.5C 728.273,1048.73 726.606,1051.73 724.5,1054.5C 721.535,1055.27 718.535,1055.94 715.5,1056.5C 704.366,1052.93 694.033,1047.77 684.5,1041C 671.744,1039.12 660.744,1033.79 651.5,1025C 634.833,1017.67 618.167,1010.33 601.5,1003C 594.332,998.917 587.332,994.584 580.5,990C 573.616,986.725 566.616,983.725 559.5,981C 552.333,975.167 545.833,968.667 540,961.5C 531.085,948.672 522.419,935.672 514,922.5C 512.777,910.607 510.444,898.94 507,887.5C 506.583,881.992 506.083,876.492 505.5,871C 509.278,852.501 513.111,834.001 517,815.5C 519.87,802.423 525.87,791.09 535,781.5C 538.53,770.044 544.03,759.711 551.5,750.5C 556.34,748.672 561.007,746.672 565.5,744.5 Z"/></g>
<g><path style="opacity:1" fill="white" d="M 565.5,790.5 C 566.077,789.227 566.743,789.227 567.5,790.5C 572.48,796.647 577.646,802.647 583,808.5C 592.139,826.618 602.473,843.951 614,860.5C 618.612,871.668 623.612,882.668 629,893.5C 637.397,906.236 645.397,919.236 653,932.5C 656.277,940.055 659.277,947.722 662,955.5C 670.544,968.751 678.71,982.251 686.5,996C 674.738,988.983 664.238,980.15 655,969.5C 640.674,950.188 627.341,930.188 615,909.5C 603.076,884.651 591.41,859.651 580,834.5C 573.829,820.154 568.995,805.487 565.5,790.5 Z"/></g>
<g><path style="opacity:1" fill="white" d="M 966.5,2399.5 C 961.167,2399.5 955.833,2399.5 950.5,2399.5C 936.118,2397.52 922.118,2393.68 908.5,2388C 900.379,2382.21 892.546,2376.05 885,2369.5C 880.333,2362.83 875.667,2356.17 871,2349.5C 867.822,2338.45 864.488,2327.45 861,2316.5C 855.909,2280.86 864.242,2248.86 886,2220.5C 895.854,2209.97 907.354,2201.81 920.5,2196C 932.8,2192.72 945.3,2190.55 958,2189.5C 970.198,2191.51 982.364,2193.67 994.5,2196C 1007.39,2202.07 1019.06,2209.9 1029.5,2219.5C 1034.67,2225.83 1039.83,2232.17 1045,2238.5C 1056.84,2269.47 1059.17,2301.14 1052,2333.5C 1037.26,2373.42 1008.76,2395.42 966.5,2399.5 Z M 948.5,2223.5 C 957.109,2223.98 965.442,2225.81 973.5,2229C 978.953,2233.49 984.119,2238.32 989,2243.5C 1003.89,2273.58 1006.89,2304.91 998,2337.5C 995.667,2342.83 993.333,2348.17 991,2353.5C 987.167,2356.67 983.333,2359.83 979.5,2363C 974.204,2364.07 968.871,2364.9 963.5,2365.5C 956.502,2364.33 949.502,2363.17 942.5,2362C 937.667,2357.17 932.833,2352.33 928,2347.5C 925,2341.5 922,2335.5 919,2329.5C 913.208,2303.81 913.208,2278.14 919,2252.5C 920.968,2246.57 923.468,2240.9 926.5,2235.5C 930.167,2232.33 933.833,2229.17 937.5,2226C 941.347,2225.37 945.014,2224.53 948.5,2223.5 Z"/></g>
<g><path style="opacity:1" fill="white" d="M 58.5,2192.5 C 74.4432,2194.03 90.4432,2194.86 106.5,2195C 107,2195.5 107.5,2196 108,2196.5C 108.667,2203.5 108.667,2210.5 108,2217.5C 107.097,2218.7 105.931,2219.53 104.5,2220C 96.9138,2221.98 89.2472,2223.48 81.5,2224.5C 81.211,2270.51 81.211,2316.51 81.5,2362.5C 96.8285,2362.03 112.162,2361.7 127.5,2361.5C 135.374,2347.58 143.374,2333.75 151.5,2320C 158.465,2318.75 165.465,2318.41 172.5,2319C 173.333,2319.83 174.167,2320.67 175,2321.5C 175.046,2344.8 172.379,2367.8 167,2390.5C 166.426,2392.49 165.259,2393.99 163.5,2395C 124.674,2395.75 85.8412,2396.25 47,2396.5C 36.1336,2396.56 25.3003,2396.06 14.5,2395C 12.627,2392.89 11.627,2390.39 11.5,2387.5C 12.1652,2382.52 12.6652,2377.52 13,2372.5C 13.5,2371.33 14.3333,2370.5 15.5,2370C 20.4598,2368.34 25.4598,2366.84 30.5,2365.5C 31.2642,2359 31.9309,2352.5 32.5,2346C 31.5106,2305.51 31.3439,2265.01 32,2224.5C 25.6667,2222.5 19.3333,2220.5 13,2218.5C 11.1967,2211.56 11.1967,2204.56 13,2197.5C 14.3246,2195.01 16.4913,2193.84 19.5,2194C 32.6731,2193.83 45.6731,2193.33 58.5,2192.5 Z"/></g>
<g><path style="opacity:1" fill="white" d="M 262.5,2193.5 C 313.186,2193.68 363.852,2193.85 414.5,2194C 415.333,2194.83 416.167,2195.67 417,2196.5C 420.019,2216.07 421.019,2235.74 420,2255.5C 419.097,2256.7 417.931,2257.53 416.5,2258C 408.818,2259.43 401.151,2259.59 393.5,2258.5C 388.303,2248.77 383.636,2238.77 379.5,2228.5C 362.499,2227.71 345.499,2227.04 328.5,2226.5C 327.412,2242.49 327.412,2258.49 328.5,2274.5C 348.524,2274.18 368.524,2274.68 388.5,2276C 391.041,2278.75 392.041,2282.08 391.5,2286C 391.083,2292.51 390.583,2299.01 390,2305.5C 388.992,2307.26 387.492,2308.43 385.5,2309C 366.524,2310.22 347.524,2310.38 328.5,2309.5C 329.096,2327.15 329.096,2344.82 328.5,2362.5C 346.21,2362.19 363.877,2361.86 381.5,2361.5C 386.874,2349.24 393.874,2338.07 402.5,2328C 409.167,2327.33 415.833,2327.33 422.5,2328C 424.667,2328.83 426.167,2330.33 427,2332.5C 426.88,2342.15 426.547,2351.82 426,2361.5C 423.539,2372.14 421.205,2382.81 419,2393.5C 418.097,2394.7 416.931,2395.53 415.5,2396C 388.516,2395.57 361.516,2395.74 334.5,2396.5C 318.1,2396.67 301.766,2396 285.5,2394.5C 279.206,2395.31 272.872,2395.97 266.5,2396.5C 261.377,2396.94 258.711,2394.61 258.5,2389.5C 259.003,2383.42 259.837,2377.42 261,2371.5C 266.303,2369.01 271.803,2367.01 277.5,2365.5C 279.788,2347.05 280.121,2328.55 278.5,2310C 281.057,2287.98 281.057,2265.98 278.5,2244C 279.445,2237.21 279.778,2230.38 279.5,2223.5C 272.836,2222.4 266.336,2220.73 260,2218.5C 258.455,2213.95 258.121,2209.29 259,2204.5C 258.799,2200.27 259.966,2196.6 262.5,2193.5 Z"/></g>
<g><path style="opacity:1" fill="white" d="M 712.5,2192.5 C 728.879,2192.45 745.212,2193.29 761.5,2195C 762.931,2195.47 764.097,2196.3 765,2197.5C 765.829,2204.23 765.496,2210.9 764,2217.5C 758.515,2220.44 752.681,2222.61 746.5,2224C 745.572,2224.39 744.905,2225.05 744.5,2226C 745.906,2237.46 747.073,2248.96 748,2260.5C 750.132,2295.16 752.132,2329.82 754,2364.5C 760.396,2366.73 766.896,2368.9 773.5,2371C 774.673,2377.8 774.506,2384.63 773,2391.5C 772.5,2393.33 771.333,2394.5 769.5,2395C 742.507,2396.9 715.507,2396.9 688.5,2395C 686.667,2394.5 685.5,2393.33 685,2391.5C 684.08,2384.72 684.414,2378.06 686,2371.5C 692.563,2368.65 699.397,2366.65 706.5,2365.5C 705.038,2333.15 703.205,2300.81 701,2268.5C 697.881,2276.74 694.214,2284.74 690,2292.5C 684.641,2313.25 677.308,2333.25 668,2352.5C 663.923,2363.4 660.256,2374.4 657,2385.5C 655.933,2386.19 654.766,2386.69 653.5,2387C 642.833,2387.67 632.167,2387.67 621.5,2387C 620.584,2386.63 619.75,2386.13 619,2385.5C 610.12,2360.86 600.453,2336.53 590,2312.5C 585.994,2297.48 580.994,2282.82 575,2268.5C 573.993,2290.56 572.326,2312.56 570,2334.5C 569.5,2345.16 569.333,2355.83 569.5,2366.5C 576.97,2366.49 584.136,2367.83 591,2370.5C 591.402,2371.87 591.902,2373.21 592.5,2374.5C 591.638,2380.81 590.805,2387.14 590,2393.5C 589.097,2394.7 587.931,2395.53 586.5,2396C 562.509,2395.84 538.509,2395.51 514.5,2395C 512.951,2393.79 511.785,2392.29 511,2390.5C 511.14,2384.53 511.473,2378.53 512,2372.5C 512.833,2371.67 513.667,2370.83 514.5,2370C 519.265,2368.8 523.931,2367.3 528.5,2365.5C 529.991,2358.56 531.158,2351.56 532,2344.5C 534.041,2313.5 536.041,2282.5 538,2251.5C 538.832,2242.48 538.665,2233.48 537.5,2224.5C 531.86,2223.27 526.194,2222.11 520.5,2221C 518.667,2220.5 517.5,2219.33 517,2217.5C 516.74,2210.1 517.407,2202.76 519,2195.5C 519.5,2195 520,2194.5 520.5,2194C 523.167,2193.83 525.833,2193.67 528.5,2193.5C 551.491,2193.94 574.491,2194.11 597.5,2194C 608.107,2218.82 616.941,2244.32 624,2270.5C 630.918,2286.33 637.251,2302.33 643,2318.5C 658.454,2278.14 673.121,2237.47 687,2196.5C 687.5,2196 688,2195.5 688.5,2195C 696.684,2194.49 704.684,2193.65 712.5,2192.5 Z"/></g>
<g><path style="opacity:1" fill="white" d="M 1149.5,2193.5 C 1166.17,2194.63 1182.84,2194.8 1199.5,2194C 1212.95,2212.45 1226.78,2230.62 1241,2248.5C 1255.68,2271.2 1271.35,2293.2 1288,2314.5C 1287.93,2284.15 1288.09,2253.81 1288.5,2223.5C 1283.11,2222.65 1277.78,2221.49 1272.5,2220C 1270.71,2219.22 1269.21,2218.05 1268,2216.5C 1267.85,2210.16 1268.18,2203.83 1269,2197.5C 1269.83,2196.67 1270.67,2195.83 1271.5,2195C 1295.49,2193.15 1319.49,2193.15 1343.5,2195C 1344,2195.5 1344.5,2196 1345,2196.5C 1345.8,2203.55 1345.63,2210.55 1344.5,2217.5C 1339.48,2220.34 1334.15,2222.51 1328.5,2224C 1327.73,2226.41 1327.23,2228.91 1327,2231.5C 1327.09,2285.51 1327.09,2339.51 1327,2393.5C 1326.1,2394.7 1324.93,2395.53 1323.5,2396C 1312.73,2396.95 1302.07,2396.62 1291.5,2395C 1262.46,2355.74 1233.29,2316.58 1204,2277.5C 1203.78,2293.32 1203.95,2309.15 1204.5,2325C 1203.99,2334.19 1203.32,2343.36 1202.5,2352.5C 1203.05,2356.85 1203.71,2361.18 1204.5,2365.5C 1210.47,2367.06 1216.47,2368.56 1222.5,2370C 1225.25,2371.08 1226.92,2373.08 1227.5,2376C 1226.75,2380.79 1226.25,2385.63 1226,2390.5C 1225.43,2392.49 1224.26,2393.99 1222.5,2395C 1197.85,2396.33 1173.18,2396.33 1148.5,2395C 1145.88,2393.51 1144.54,2391.18 1144.5,2388C 1145.2,2382.86 1145.7,2377.69 1146,2372.5C 1146.83,2371.67 1147.67,2370.83 1148.5,2370C 1153.54,2368.6 1158.54,2367.1 1163.5,2365.5C 1164.87,2357.06 1165.54,2348.56 1165.5,2340C 1164.47,2303.18 1164.47,2266.18 1165.5,2229C 1165.41,2227.89 1165.08,2226.89 1164.5,2226C 1158.42,2223.86 1152.42,2221.53 1146.5,2219C 1145.3,2218.1 1144.47,2216.93 1144,2215.5C 1144.19,2209.88 1144.52,2204.21 1145,2198.5C 1146.02,2196.31 1147.52,2194.65 1149.5,2193.5 Z"/></g>
</svg>
