<svg clip-rule="evenodd" fill-rule="evenodd" image-rendering="optimizeQuality" shape-rendering="geometricPrecision" text-rendering="geometricPrecision" version="1.1" viewBox="0 0 62 100" xmlns="http://www.w3.org/2000/svg"><path d="m31.153 0c-1.2087 0.0519-2.412 0.15353-3.6096 0.30503-0.44444-5e-3 -0.88501-0.0384-1.3218-0.10167-1.2618 0.29425-2.5328 0.54844-3.8129 0.76258-0.44057 0.25419-0.88124 0.50839-1.3218 0.76258-0.26019-0.11266-0.4974-0.24819-0.71174-0.40671-0.21281-0.0554-0.41617-0.14011-0.61007-0.25419-0.16949-0.0678-0.33889-0.0678-0.50839 0-0.98942 0.40904-2.0062 0.71408-3.0503 0.91509-0.35658 0.22919-0.72933 0.43254-1.1184 0.61007-0.81657 0.82237-1.6808 1.585-2.5928 2.2878-0.33859 1.0147-0.84698 1.9298-1.5252 2.7453-0.0218 2.3606-0.25907 4.6992-0.71174 7.0158-0.33889 0.54224-0.67789 1.0846-1.0168 1.6268-0.11957 0.57986-0.25511 1.1561-0.40671 1.7285-0.52811 0.92059-1.0026 1.8696-1.4235 2.847-0.33177 1.1987-0.70462 2.385-1.1184 3.5587-0.39237 1.1251-1.0364 2.074-1.9319 2.847-0.27117 0.54224-0.54224 1.0846-0.81342 1.6268-0.25745 1.1317-0.56248 2.2501-0.9151 3.3554-0.33889 0.54194-0.67788 1.0849-1.0168 1.6268-0.0951 1.0991-0.43397 2.1159-1.0168 3.0503 0.0176 0.63142 0.10229 1.2588 0.25419 1.881-0.23324 1.7133-0.47046 3.4245-0.71174 5.1347 0.39095 1.1062 0.66202 2.241 0.81342 3.4062-0.11947 0.61312-0.25511 1.2232-0.40671 1.8302 0.44443 1.7153 0.66477 3.4611 0.66091 5.2364 0.22328 0.50025 0.42664 1.0086 0.61006 1.5252 0.23732 1.1866 0.47453 2.3732 0.71175 3.5587 0.64575 1.5333 1.0863 3.1266 1.3218 4.7788 0.16319 0.62532 0.36654 1.2354 0.61006 1.8302 0.63874 0.83681 1.1471 1.7519 1.5252 2.7453 1.0565 1.1988 2.0394 2.4525 2.9486 3.7621 0.35913 0.65074 0.66416 1.3289 0.9151 2.0336 0.5762 0.77987 1.1523 1.5587 1.7285 2.3386 0.56095 0.41586 1.1032 0.85714 1.6268 1.3218 0.2966 0.424 0.56777 0.86427 0.81342 1.3218 0.57296 0.47077 1.1152 0.97916 1.6268 1.5252 0.70442 0.89985 1.4332 1.7814 2.1861 2.6436 1.0663 0.85511 2.1508 1.6858 3.2537 2.4911 0.80153 0.75038 1.5472 1.5465 2.2369 2.3894 0.4543 0.26843 0.89497 0.55618 1.3218 0.86426 2.1536 1.0341 4.3566 1.9492 6.609 2.7453 1.266 0.39552 2.5538 0.70056 3.8638 0.9151 0.47453 0.33858 0.94896 0.67819 1.4235 1.0168 0.71632 0.18709 1.4281 0.39044 2.1352 0.61007 0.54225 0.33858 1.0846 0.67819 1.6268 1.0168 0.3389 0.44026 0.67789 0.88154 1.0168 1.3218 1.498 0.74835 2.8537 1.698 4.0671 2.847 0.97671-0.0722 1.9596-0.1393 2.9486-0.20336 0.34276-0.10879 0.68165-0.22674 1.0168-0.35587 0.3091-0.87646 0.64809-1.7407 1.0168-2.5928-0.0768-0.3579-0.16146-0.71378-0.25419-1.0676 0.0807-2.3904 0.65684-4.6609 1.7285-6.8124 0.30859-0.34265 0.64748-0.64769 1.0168-0.9151 0.41799-1.1632 0.75689-2.3498 1.0168-3.5587 0.54154-1.152 1.1855-2.2359 1.9319-3.2537 0.10168-0.54194 0.20336-1.0849 0.30503-1.6268 0.47453-1.2201 0.94896-2.4403 1.4235-3.6604 0.40702-2.2715 1.1188-4.4403 2.1352-6.5074 0.0546-1.0473 0.25796-2.0641 0.61007-3.0503 0.16116-1.8058 0.39837-3.6024 0.71174-5.3889 0.23051-0.60702 0.45074-1.2171 0.66091-1.8302-0.1516-0.57244-0.28724-1.149-0.40671-1.7285 0.1214-0.51652 0.27392-1.0249 0.45755-1.5252 0.14092-1.4886 0.17488-2.9802 0.10167-4.4738-0.13177-0.8602-0.11479-1.7245 0.0508-2.5928-0.16349-1.2527-0.50239-2.4565-1.0168-3.6096 0.11001-0.57448 0.21169-1.151 0.30503-1.7285-0.17641-0.51246-0.36279-1.0208-0.55923-1.5252-0.54245-2.2379-1.2882-4.4067-2.2369-6.5074-0.13553-0.67819-0.27117-1.3554-0.40671-2.0336-0.58454-0.99949-1.1946-1.9827-1.8302-2.9487-0.18525-0.57142-0.35475-1.1479-0.50838-1.7285-0.36269-0.35353-0.70158-0.72638-1.0168-1.1184-0.57621-1.0168-1.1523-2.0336-1.7285-3.0503-0.51042-0.45969-1.0358-0.90036-1.576-1.3218-0.63141-0.94092-1.2753-1.8729-1.9319-2.7961-0.33889-0.23721-0.67789-0.47453-1.0168-0.71174-1.1523-1.0846-2.3047-2.1691-3.457-3.2537-0.7456-0.54224-1.4913-1.0846-2.2369-1.6268-0.54224-0.27117-1.0846-0.54225-1.6268-0.81342-0.33533-0.43722-0.70819-0.84393-1.1185-1.2201-0.6975-0.23224-1.3753-0.50341-2.0336-0.81342-0.97275-0.7876-1.9556-1.5502-2.9486-2.2878-1.8688-0.47707-3.6313-1.2058-5.2872-2.1861-1.1452-0.15069-2.2298-0.48958-3.2537-1.0168l-4.4738-4.4738c2.4036-0.17905 4.81-0.33157 7.2191-0.45755 2.7989 0.0919 5.595 0.0241 8.3884-0.20335 2.0506 0.1277 4.1011 0.1277 6.1515 0v-0.30504c-1.2061-9e-3 -2.3924-0.16197-3.5587-0.45755-0.81342-0.0338-1.6268-0.0678-2.4403-0.10167-1.066-0.4482-2.1675-0.56675-3.3045-0.35587-1.0649-0.11155-2.1325-0.17936-3.2028-0.20336zm-11.795 2.6436c0.59481 0.20427 1.171 0.45846 1.7285 0.76258 1.0028 1.0368 2.0365 2.0366 3.1012 2.9995 0.38709 0.55323 0.81068 1.0786 1.271 1.576 1.2554 0.57814 2.2552 1.4424 2.9995 2.5928 0.95557 1.0236 1.9724 1.9726 3.0503 2.847 0.31429 0.45898 0.65328 0.89955 1.0168 1.3218 0.4608 1.1589 1.0032 2.2774 1.6268 3.3554 0.067 1.3179 0.30422 2.6059 0.71175 3.8638 0.0605 1.3246 0.24687 2.6294 0.55923 3.9146-0.0401 0.6184-0.10788 1.2285-0.20336 1.8302 0.14906 1.2964 0.26762 2.6009 0.35587 3.9146 0.12161 0.55109 0.27413 1.093 0.45755 1.6268-0.12476 0.32842-0.29425 0.63345-0.50839 0.9151-0.30147 0.0783-0.6065 0.14642-0.9151 0.20336-1.1321-0.36299-2.1827-0.88765-3.152-1.576-1.297-0.19115-2.4155-0.73309-3.3554-1.6268-1.6947-0.7453-3.3892-1.4916-5.0839-2.2369-0.72883-0.41515-1.4406-0.85572-2.1352-1.3218-0.69995-0.33299-1.4117-0.63803-2.1352-0.9151-0.72873-0.59308-1.3896-1.254-1.9827-1.9827-0.90645-1.3043-1.7876-2.6261-2.6436-3.9654-0.12435-1.2092-0.36156-2.3955-0.71174-3.5587-0.0424-0.56004-0.0932-1.1193-0.15252-1.6777 0.38414-1.8809 0.77387-3.762 1.1693-5.6431 0.29182-1.3296 0.90189-2.482 1.8302-3.457 0.35892-1.1648 0.91815-2.2154 1.6777-3.152 0.49212-0.18587 0.96665-0.38923 1.4235-0.61007zm0.0947 4.5801c-0.0339 0-0.0654 0.0324-0.0947 0.0971 0.35537 1.5238 0.84688 3.0152 1.4743 4.4738 1.1601 2.5573 2.3463 5.0992 3.5587 7.6258 1.2548 2.1035 2.6105 4.1371 4.0671 6.1007 0.9393 1.0829 2.0069 1.981 3.2028 2.6945-0.79207-1.398-1.6224-2.7706-2.4911-4.118-0.27687-0.79085-0.5819-1.5704-0.9151-2.3386-0.77306-1.3486-1.5865-2.6705-2.4403-3.9654-0.54783-1.1014-1.0562-2.2198-1.5252-3.3554-1.172-1.6827-2.2228-3.445-3.152-5.2872-0.54438-0.59512-1.0696-1.2052-1.576-1.8302-0.0385-0.0647-0.0747-0.0971-0.10863-0.0971z" fill="#fff"/></svg>
