<svg width="148" height="40" clip-rule="evenodd" fill-rule="evenodd" image-rendering="optimizeQuality" shape-rendering="geometricPrecision" text-rendering="geometricPrecision" version="1.1" xmlns="http://www.w3.org/2000/svg"><g transform="matrix(.07326 0 0 .07326 .77656 .036631)"><path d="m164.5-0.5h33c6.161 1.6701 12.494 3.1701 19 4.5 6.218 2.9425 12.551 5.6091 19 8 10.801 1.9337 21.134 5.267 31 10 1.122 2.1238 2.622 3.9571 4.5 5.5 0.532 2.7635 1.366 5.4302 2.5 8-8.92 10.398-19.92 17.898-33 22.5-18.703 7.3424-38.036 12.176-58 14.5-10.328-2.165-19.995-5.9983-29-11.5-6.384-0.859-12.384-2.859-18-6-5.5-6.8333-11.667-13-18.5-18.5-0.465-1.4308-1.299-2.5975-2.5-3.5 0.333-0.3333 0.667-0.6667 1-1 36.99-1.341 73.99-2.1744 111-2.5v-3c-13.81-0.6758-27.477-2.3425-41-5-7.977 0.8046-15.977 0.8046-24 0-15.161 0.0269-30.161 1.5269-45 4.5-2.555 1.4445-5.221 2.6112-8 3.5-1.671-0.1682-3.004-0.8349-4-2 5.315-2.1371 9.981-5.3038 14-9.5 9.844-3.2558 19.178-7.5891 28-13 6.482-0.6515 12.482-2.4848 18-5.5z" fill="#495e56" opacity=".982"/><path d="m182.5 72.5c7.464 7.2785 16.131 12.778 26 16.5 3.679 5.3518 8.679 9.0185 15 11 3.717 3.385 7.717 6.385 12 9 6.901 7.572 14.401 14.405 22.5 20.5 4.363 8.384 10.363 15.384 18 21 3.668 8.01 8.335 15.344 14 22 2.675 8.349 6.675 16.016 12 23 0.667 3.333 1.333 6.667 2 10 5.661 13.316 10.328 26.983 14 41 0.681 3.702 0.515 7.369-0.5 11 1.806 5.251 3.306 10.584 4.5 16 0.316 13.601 0.316 27.267 0 41-0.934 2.636-1.768 5.303-2.5 8 2.732 6.865 2.232 13.531-1.5 20-1.69 21.087-6.356 41.42-14 61-3.778 14.874-8.112 29.54-13 44-4.09 5.173-7.423 10.84-10 17-1.398 6.528-3.398 12.861-6 19-3.827 2.827-6.494 6.493-8 11-2.986 8.292-5.153 16.792-6.5 25.5 0.588 2.851 1.255 5.685 2 8.5-1.592 5.015-3.592 9.848-6 14.5-3.78 0.918-7.446 1.751-11 2.5h-10c-5.817-5.806-12.483-10.473-20-14-5.832-8.422-13.832-13.589-24-15.5-3.272-1.608-6.272-3.608-9-6-14.569-2.523-28.569-6.857-42-13-6.776-2.554-13.109-5.887-19-10-8.819-10.161-18.819-18.827-30-26-5.8179-7.816-12.318-14.983-19.5-21.5-2.609-6.275-6.9424-10.942-13-14-5.5928-6.592-9.9261-13.925-13-22-4.7591-6.515-9.7591-12.848-15-19-2.5635-6.128-5.8968-11.795-10-17-2.705-11.866-6.0383-23.533-10-35-0.9444-9.062-3.2777-17.729-7-26-0.13514-9.245-0.96847-18.411-2.5-27.5 1.7559-8.179 1.0892-16.012-2-23.5v-13c1.1517-5.835 2.1518-11.835 3-18-0.5608-3.035-1.2275-6.035-2-9 3.5812-5.494 5.7479-11.494 6.5-18 2.0624-2.401 3.7291-5.067 5-8 1.6667-6 3.3333-12 5-18 5.0637-7.403 9.7304-15.07 14-23 3.1546-11.464 7.488-22.464 13-33 0.9861-5.971 3.3195-11.304 7-16 2.7104-12.849 4.3771-25.849 5-39 3.278-4.2211 5.778-8.8878 7.5-14 4.7788-3.2757 9.1121-7.1091 13-11.5 7.1692-3.057 14.503-5.7237 22-8 2.045-0.4901 4.045-0.3235 6 0.5 0.996 1.1651 2.329 1.8318 4 2 2.779-0.8888 5.445-2.0555 8-3.5 14.839-2.9731 29.839-4.4731 45-4.5 8.023 0.8046 16.023 0.8046 24 0 13.523 2.6575 27.19 4.3242 41 5v3c-37.01 0.3256-74.01 1.159-111 2.5-0.333 0.3333-0.667 0.6667-1 1 1.201 0.9025 2.035 2.0692 2.5 3.5 6.833 5.5 13 11.667 18.5 18.5 5.616 3.141 11.616 5.141 18 6 9.005 5.5017 18.672 9.335 29 11.5z" fill="#f3cd14" opacity=".994"/><path d="m98.5 35.5c3.605 0.2986 6.939 1.4653 10 3.5 8.086 7.7498 15.753 15.75 23 24 7.257 2.8719 12.757 7.7052 16.5 14.5 7.667 6.3333 14.667 13.333 21 21 2.095 5.958 4.761 11.624 8 17 2.883 13.606 5.383 27.272 7.5 41-1.131 10.665-0.964 21.332 0.5 32 4.181 6.633 2.514 10.966-5 13-2.5-0.833-5-1.667-7.5-2.5-25.041-13.028-50.374-25.695-76-38-3.1301-2.128-5.9634-4.628-8.5-7.5-5-7.333-10-14.667-15-22-1.9922-9.636-3.8255-19.302-5.5-29 1.9754-10.044 4.1421-20.044 6.5-30 4.561-10.225 9.561-20.225 15-30 1.5292-1.2287 2.6959-2.7287 3.5-4.5 2.2226-0.5662 4.2226-1.3995 6-2.5z" fill="#4a5e56"/><path d="m100.5 60.5c6.454 4.8937 10.954 11.227 13.5 19 3.667 5.3333 7.333 10.667 11 16 5.366 13.068 12.033 25.401 20 37 2.587 4.761 4.587 9.761 6 15 18.098 25.951 16.098 27.617-6 5-6.916-10.163-13.583-20.497-20-31-5.726-13.12-11.726-26.12-18-39-3.08-7.0737-5.247-14.407-6.5-22z" fill="#efca17"/><g fill="#485e56"><path d="m1781.5 235.5c29.66-4.655 50.16 6.679 61.5 34 1.56 6.956 2.73 13.956 3.5 21-1.33 7.29-2.5 14.624-3.5 22-9.26 22.903-26.42 34.237-51.5 34-14.16 0.417-26.16-4.416-36-14.5-2.83-3.5-5.67-7-8.5-10.5-8.67-20.333-8.67-40.667 0-61 8.16-13.145 19.66-21.479 34.5-25zm8 17c3.98 1.163 7.98 2.329 12 3.5 8.08 6.998 12.92 15.831 14.5 26.5 1.13 10.485 0.47 20.818-2 31-5.86 14.23-15.69 18.063-29.5 11.5-6.76-4.343-10.93-10.51-12.5-18.5-4.02-15.354-3.02-30.354 3-45 3.99-4.519 8.83-7.519 14.5-9z" opacity=".964"/><path d="m449.5 236.5c16.034 0.272 32.034 0.439 48 0.5 1.167 0.5 2 1.333 2.5 2.5 0.837 3.795 0.504 7.461-1 11-4.392 1.389-8.892 2.389-13.5 3-0.165 24.35-0.165 48.684 0 73 8.34 0.166 16.673 0 25-0.5 3.794-7.089 7.461-14.255 11-21.5 3.959-1.16 7.959-1.327 12-0.5 1.528 1.648 2.195 3.648 2 6-0.484 10.979-1.984 21.812-4.5 32.5l-1.5 1.5c-7.504 0.438-15.004 0.938-22.5 1.5-19.157-0.748-38.324-1.248-57.5-1.5-0.667-1-1.333-2-2-3 0.788-3.076 1.288-6.242 1.5-9.5 2.934-1.693 6.101-2.693 9.5-3 0.376-23.671 0.543-47.337 0.5-71-0.273-1.601-0.773-3.101-1.5-4.5-3.482-0.489-6.649-1.655-9.5-3.5-0.574-4.477-0.074-8.81 1.5-13z" opacity=".96"/><path d="m581.5 236.5c15.004-0.167 30.004 0 45 0.5 2.301 3.733 2.635 7.733 1 12-2.591 2.152-5.591 3.652-9 4.5-1.296 25.046-1.629 50.046-1 75 3.41 0.282 6.743 0.949 10 2 1.161 4.295 1.328 8.629 0.5 13-0.75 0.626-1.584 1.126-2.5 1.5-14.941 0.47-29.941 0.303-45-0.5-0.602-4.255-0.436-8.589 0.5-13 3.005-1.502 6.171-2.502 9.5-3 0.521-24.984 0.354-49.984-0.5-75-3.366-0.874-6.7-1.874-10-3-0.881-4.858-0.381-9.524 1.5-14z" opacity=".96"/><path d="m675.5 236.5c29.259 0.162 58.593 0.329 88 0.5 1.912 3.522 3.079 7.355 3.5 11.5 0.826 8.624 0.326 17.124-1.5 25.5-4.371 0.828-8.705 0.661-13-0.5-2.667-6-5.333-12-8-18-3.945-0.991-7.945-1.324-12-1 0.131 24.731 0.131 49.397 0 74 4.427 0.051 8.593 1.051 12.5 3 0.978 4.4 0.478 8.567-1.5 12.5-14.838 1.186-29.672 1.353-44.5 0.5-1.981-0.129-3.647-0.796-5-2-0.61-3.736-0.277-7.403 1-11 3.334-1.542 6.834-2.542 10.5-3 0.472-24.235 0.805-48.568 1-73-4.055-0.324-8.055 9e-3 -12 1-2.872 5.912-5.872 11.745-9 17.5-4.371 0.828-8.705 0.661-13-0.5-1.138-10.836-0.805-21.669 1-32.5 0.259-1.787 0.925-3.287 2-4.5z" opacity=".962"/><path d="m810.5 236.5c29.279 0.297 58.612 0.464 88 0.5 1.167 0.5 2 1.333 2.5 2.5 1.794 10.274 2.461 20.607 2 31-0.273 1.601-0.773 3.101-1.5 4.5-4.027 0.331-8.027-2e-3 -12-1-3.318-6.302-6.652-12.635-10-19-3.625 0.554-7.292 0.387-11-0.5-0.288 24.809-0.288 49.476 0 74 4.207 0.241 8.207 1.241 12 3 0.935 4.238 0.602 8.405-1 12.5-11.855 0.218-23.689 0.718-35.5 1.5-4.144-0.664-8.311-1.164-12.5-1.5-4.659-10.168-1.326-15.334 10-15.5 0.971-24.325 0.971-48.658 0-73-3.646-0.783-7.312-0.95-11-0.5-2.714 6.644-5.714 13.144-9 19.5-12.489 3.01-17.155-1.823-14-14.5-0.369-8.06 0.631-15.894 3-23.5z" opacity=".958"/><path d="m950.5 236.5c15.425-7e-3 30.758 0.326 46 1 1.053 0.938 1.72 2.105 2 3.5 1.054 7.151-1.946 11.151-9 12-1.973 0.495-3.973 0.662-6 0.5-0.615 24.319-0.615 48.653 0 73 8.007 0.166 16.007 0 24-0.5 4.76-7.093 9.1-14.426 13-22 4-0.667 8-0.667 12 0 1.54 13.386 0.21 26.553-4 39.5-19.84 0.721-39.67 1.388-59.5 2-7.155-0.656-14.321-1.156-21.5-1.5-3.785-9.318-0.785-14.485 9-15.5 0.601-25.305 0.601-50.638 0-76-10.363 0.282-13.529-4.385-9.5-14 1.302-0.585 2.469-1.251 3.5-2z" opacity=".959"/><path d="m1079.5 236.5c27.34-0.167 54.67 0 82 0.5 2.99 11.208 3.66 22.542 2 34-4.63 1.697-9.3 1.864-14 0.5-2.59-4.849-4.92-9.849-7-15-8.94-1.463-17.94-2.129-27-2 0.09 8.688-0.25 17.354-1 26 11.01-0.268 22.01-0.434 33-0.5 1.53 1.648 2.2 3.648 2 6-0.3 4.104-0.97 8.104-2 12-10.6 1.403-21.27 1.903-32 1.5-0.46 9.042-0.46 18.042 0 27 9.34 0.166 18.67 0 28-0.5 3.13-5.755 6.13-11.588 9-17.5 4.63-1.162 9.3-1.328 14-0.5 0.67 1 1.33 2 2 3 0.04 11.492-1.96 22.659-6 33.5-1.61 0.577-3.27 0.91-5 1-25.83-0.484-51.49-0.651-77-0.5-2.16-1.161-3.16-2.994-3-5.5 0.44-2.679 0.94-5.345 1.5-8 2.93-1.693 6.1-2.693 9.5-3 0.09-6.011 0.43-12.011 1-18-0.74-18.991-1.24-37.991-1.5-57-3.37-0.874-6.7-1.874-10-3-1.03-4.957-0.53-9.624 1.5-14z" opacity=".959"/><path d="m1293.5 236.5c15-0.167 30 0 45 0.5l1.5 1.5c0.83 4.041 0.66 8.041-0.5 12-4.23 1.474-8.56 2.474-13 3-0.07 24.335-0.07 48.669 0 73 8.01 0.166 16.01 0 24-0.5 4.25-7.173 8.25-14.507 12-22 4.37-0.828 8.7-0.661 13 0.5 1.09 13.246-0.41 26.246-4.5 39-6.92 0.948-13.92 1.615-21 2-19.87-0.428-39.7-0.928-59.5-1.5l-1.5-1.5c-3.28-9.312-0.12-13.979 9.5-14 0.76-24.675 0.93-49.341 0.5-74-2.77-2.165-5.93-3.665-9.5-4.5-1.31-3.802-1.31-7.635 0-11.5 1.45-0.672 2.78-1.339 4-2z" opacity=".959"/><path d="m1422.5 236.5c27-0.167 54 0 81 0.5 3.58 10.17 4.75 20.67 3.5 31.5-0.37 0.916-0.87 1.75-1.5 2.5-4.32 0.905-8.65 1.238-13 1-2.99-5.631-5.99-11.298-9-17-8.67-0.416-17.34-0.25-26 0.5v24c10.64 0.753 21.31 0.92 32 0.5 1.72 0.775 2.72 2.108 3 4-0.49 4.813-1.49 9.48-3 14-10.64 1.043-21.31 1.543-32 1.5v27c9.69 0.332 19.36-2e-3 29-1 2.87-5.912 5.87-11.745 9-17.5 5.06-1.01 9.89-0.51 14.5 1.5 0.51 11.602-0.99 22.936-4.5 34-2.95 0.821-5.95 1.321-9 1.5-24.4-0.71-48.74-0.543-73 0.5-0.98-0.477-1.81-1.143-2.5-2-0.67-4-0.67-8 0-12 2.93-1.693 6.1-2.693 9.5-3 0.65-22.343 0.82-44.677 0.5-67-0.33-2.667-0.67-5.333-1-8-3.65-0.593-6.98-1.926-10-4-0.32-4.617 0.51-8.951 2.5-13z" opacity=".959"/><path d="m1560.5 236.5c13.34-0.167 26.67 0 40 0.5l1.5 1.5c7.87 21.936 15.53 43.936 23 66 7.87-21.947 15.54-43.947 23-66l1.5-1.5c13.33-0.667 26.67-0.667 40 0 0.93 1.194 1.6 2.527 2 4-0.61 2.854-1.28 5.687-2 8.5-3.22 1.794-6.55 3.294-10 4.5 2.11 24.742 3.78 49.576 5 74.5 3.67 0.458 7.17 1.458 10.5 3 0.67 4 0.67 8 0 12l-1.5 1.5c-14.67 0.667-29.33 0.667-44 0-0.81-0.308-1.47-0.808-2-1.5-1.09-3.608-1.26-7.275-0.5-11 3.37-2.263 7.04-3.93 11-5-0.1-16.022-0.93-32.022-2.5-48-8.37 19.282-15.87 38.948-22.5 59l-1.5 1.5c-6.69 0.831-13.36 0.664-20-0.5-8.11-20.449-15.61-41.115-22.5-62-1.22 16.988-2.38 33.988-3.5 51 4.05 0.31 7.88 1.31 11.5 3 0.67 3.667 0.67 7.333 0 11l-1.5 1.5c-13.36 1.447-26.69 1.613-40 0.5-1.16-4.295-1.33-8.629-0.5-13 3.27-1.484 6.6-2.818 10-4 0.58-11.185 1.42-22.352 2.5-33.5-0.09-2.375-0.43-4.709-1-7 1.98-11.129 2.64-22.295 2-33.5-3.9-0.532-7.4-1.865-10.5-4-0.45-4.645 0.38-8.978 2.5-13z" opacity=".96"/><path d="m1999.5 237.5v12c-2.62 1.985-5.62 2.985-9 3-0.01 22.171-0.01 44.338 0 66.5-0.79 8.131-1.29 16.298-1.5 24.5-6.14 2.091-12.31 2.258-18.5 0.5-15.29-20.077-30.45-40.244-45.5-60.5-0.27 12.012-0.77 24.012-1.5 36 0.27 3.017 0.6 6.017 1 9 4 0.432 7.83 1.432 11.5 3 0.67 4 0.67 8 0 12l-1.5 1.5c-13.89-0.017-27.72-0.517-41.5-1.5-0.67-3.667-0.67-7.333 0-11 3.1-2.11 6.43-3.777 10-5 0.17-2 0.33-4 0.5-6-0.11-21.684-0.11-43.35 0-65-0.11-0.942-0.44-1.775-1-2.5-3.8-0.928-7.3-2.428-10.5-4.5-0.52-4.051-0.18-8.051 1-12 9.79-0.258 19.62-0.424 29.5-0.5 15.87 20.9 31.37 42.067 46.5 63.5-0.3-15.983-0.47-31.983-0.5-48-10.43 0.725-13.93-3.942-10.5-14l1.5-1.5c13.41-0.282 26.74-0.115 40 0.5z" opacity=".96"/></g></g></svg>
